<?xml version="1.0" standalone="no"?>
<!DOCTYPE svg PUBLIC "-//W3C//DTD SVG 20010904//EN"
 "http://www.w3.org/TR/2001/REC-SVG-20010904/DTD/svg10.dtd">
<svg version="1.0" xmlns="http://www.w3.org/2000/svg"
 width="50.000000pt" height="50.000000pt" viewBox="0 0 50.000000 50.000000"
 preserveAspectRatio="xMidYMid meet">

<g transform="translate(0.000000,50.000000) scale(0.100000,-0.100000)"
fill="#000000" stroke="none">
<path d="M0 250 l0 -250 250 0 250 0 0 250 0 250 -250 0 -250 0 0 -250z m341
174 c37 -19 85 -76 99 -119 32 -98 -36 -221 -137 -250 -22 -6 -23 -4 -23 64 0
69 1 71 25 71 14 0 25 3 25 8 0 4 3 17 6 30 6 19 3 22 -25 22 -20 0 -31 5 -31
14 0 30 13 46 36 46 20 0 24 5 24 30 0 28 -2 30 -40 30 -27 0 -47 -7 -60 -20
-13 -13 -20 -33 -20 -60 0 -36 -2 -40 -25 -40 -21 0 -25 -5 -25 -30 0 -25 4
-30 25 -30 24 0 25 -2 25 -71 0 -68 -1 -70 -22 -64 -53 16 -100 57 -124 108
-26 58 -29 84 -13 140 11 40 58 100 93 119 54 29 133 30 187 2z"/>
</g>
</svg>
